<svg width="48" height="49" viewBox="0 0 48 49" fill="none" xmlns="http://www.w3.org/2000/svg">
<path d="M19.2375 7.12201H8.69999C6.59999 7.12201 4.87499 8.84701 4.87499 10.9845C4.79999 13.047 6.44999 14.772 8.51249 14.847H19.35L19.2375 7.12201Z" fill="#073042"/>
<path d="M43.125 41.472H8.7C6.5625 41.472 4.875 39.747 4.875 37.6095V10.947C4.875 13.0845 6.6 14.8095 8.7 14.847H37.5375C37.5375 14.847 43.1625 14.3595 43.1625 18.597V41.472H43.125Z" fill="#4285F4"/>
<path d="M27.075 27.822C28.6125 26.6595 28.9125 24.4845 27.75 22.9845C27.1125 22.1595 26.1375 21.6345 25.0875 21.597H25.2C25.3875 21.5595 25.6125 21.5595 25.8 21.597V19.4595C25.8 19.197 25.6875 18.972 25.4625 18.8595C25.125 18.672 24.7125 18.7845 24.525 19.122C24.45 19.2345 24.4125 19.347 24.45 19.497V21.672C22.575 21.972 21.2625 23.7345 21.5625 25.647V25.6845C21.7125 26.5845 22.2 27.4095 22.95 27.9345L16.6125 41.5095H20.7375L23.6625 35.2845C24 34.5345 24.9 34.197 25.6875 34.572C25.9875 34.722 26.25 34.9845 26.4 35.2845L29.4375 41.5095H33.6375L27.075 27.822ZM24.9375 27.222C23.7375 27.222 22.8 26.247 22.8 25.047C22.8 23.847 23.775 22.9095 24.975 22.947C25.5375 22.947 26.025 23.172 26.4375 23.547C27.3 24.372 27.3 25.722 26.475 26.5845C26.1 26.9595 25.5375 27.222 24.9375 27.222Z" fill="#3870B2"/>
<path d="M16.95 8.99701H31.725V11.697H16.95V8.99701Z" fill="white"/>
<path d="M23.8125 22.9095C24.975 22.9095 25.95 23.8845 25.9125 25.0845C25.9125 26.247 24.9375 27.222 23.7375 27.1845C22.575 27.1845 21.6375 26.2095 21.6375 25.047C21.6375 24.4845 21.8625 23.9595 22.275 23.547C22.6875 23.1345 23.25 22.9095 23.8125 22.9095ZM24.6375 21.672V19.422C24.6375 19.1595 24.525 18.9345 24.3 18.822C23.9625 18.6345 23.55 18.747 23.3625 19.0845C23.2875 19.197 23.25 19.3095 23.2875 19.4595V21.6345C21.4125 21.9345 20.1 23.697 20.4 25.6095V25.647C20.55 26.547 21.0375 27.372 21.7875 27.897L13.8 45.0345C13.5 45.6345 13.5375 46.3845 13.95 46.947C14.55 47.8095 15.7125 48.0345 16.575 47.4345C16.875 47.247 17.1 46.947 17.25 46.647L22.575 35.247C22.9125 34.497 23.8125 34.1595 24.6 34.5345C24.9 34.6845 25.1625 34.947 25.3125 35.247L30.75 46.5345C31.2 47.472 32.325 47.847 33.2625 47.397C34.2 46.947 34.575 45.822 34.125 44.8845L25.9125 27.822C27.4125 26.622 27.675 24.4095 26.475 22.9095C26.025 22.3095 25.3875 21.897 24.6375 21.672Z" fill="#073042"/>
<path d="M29.55 11.397C28.9875 11.397 28.5375 10.9845 28.5375 10.422C28.5375 10.1595 28.65 9.8595 28.8375 9.672C29.25 9.297 29.85 9.297 30.2625 9.672C30.45 9.8595 30.5625 10.122 30.5625 10.3845C30.525 10.947 30.1125 11.3595 29.55 11.397ZM18.45 11.3595C17.8875 11.3595 17.4375 10.9095 17.4375 10.3845C17.4375 10.122 17.55 9.8595 17.7375 9.672C18.075 9.2595 18.7125 9.1845 19.125 9.522H19.1625C19.575 9.897 19.6125 10.5345 19.2375 10.947L19.125 11.097C18.9375 11.2845 18.675 11.397 18.4125 11.397M29.85 5.322L31.8375 1.872C31.95 1.6845 31.875 1.4595 31.725 1.3095C31.5375 1.2345 31.35 1.272 31.2375 1.422L29.175 4.9845C25.875 3.522 22.125 3.522 18.8625 4.9845L16.8375 1.4595C16.7625 1.347 16.6125 1.2345 16.4625 1.2345C16.3125 1.2345 16.1625 1.3095 16.0875 1.4595C16.0125 1.572 16.0125 1.7595 16.0875 1.872L18.1125 5.322C14.5875 7.2345 12.3 10.8345 11.9625 14.8095H36.0375C35.7375 10.797 33.4125 7.2345 29.8875 5.322" fill="#3DDC84"/>
<path d="M39.6 22.272H38.025C37.95 22.3095 37.875 22.3845 37.875 22.497V47.4345C37.875 47.547 37.95 47.622 38.0625 47.622H39.7125C41.625 47.622 43.1625 46.047 43.1625 44.172V18.7845C43.1625 20.697 41.625 22.2345 39.7125 22.2345H39.6V22.272Z" fill="#073042"/>
</svg>
