<svg width="48" height="50" viewBox="0 0 48 50" fill="none" xmlns="http://www.w3.org/2000/svg">
<g clip-path="url(#clip0_35_104)">
<path d="M47.9655 11.1753C47.9833 11.241 47.9925 11.3089 47.9925 11.3771V21.9803C47.9925 22.2574 47.8444 22.5132 47.6039 22.651L38.7048 27.7751V37.9306C38.7047 38.0665 38.669 38.2 38.6012 38.3177C38.5333 38.4354 38.4358 38.5333 38.3183 38.6015L19.7413 49.2956C19.6988 49.3196 19.6525 49.3349 19.606 49.3516C19.5886 49.3573 19.5723 49.3679 19.5539 49.3728C19.424 49.407 19.2875 49.407 19.1576 49.3728C19.1363 49.3672 19.117 49.3554 19.0967 49.3477C19.0542 49.3321 19.0098 49.3186 18.9693 49.2956L0.396073 38.6013C0.278075 38.5335 0.180026 38.4359 0.111809 38.3181C0.0435916 38.2004 0.00761581 38.0667 0.00750732 37.9306L0.00750732 6.12108C0.00750732 6.05136 0.0172543 5.98369 0.0344989 5.91809C0.0403096 5.89578 0.0538054 5.87554 0.0616779 5.85323C0.0761109 5.81274 0.0897941 5.77113 0.110975 5.73346C0.125408 5.70834 0.146589 5.68809 0.164021 5.66485C0.186326 5.63392 0.20657 5.60206 0.232624 5.57488C0.25493 5.55276 0.283983 5.53627 0.309101 5.51696C0.337217 5.49372 0.362146 5.4686 0.394012 5.45023H0.394949L9.68192 0.103278C9.79955 0.0356896 9.93285 0.00012207 10.0685 0.00012207C10.2042 0.00012207 10.3375 0.0356896 10.4551 0.103278L19.7421 5.45023H19.744C19.7749 5.46973 19.8011 5.49372 19.8291 5.51602C19.8542 5.53533 19.8823 5.55276 19.9044 5.57413C19.9316 5.60206 19.9509 5.63411 19.974 5.66485C19.9904 5.68809 20.0128 5.70834 20.0263 5.73346C20.0484 5.77207 20.0609 5.81274 20.0765 5.85342C20.0842 5.87554 20.0977 5.89578 20.1035 5.91902C20.1213 5.98481 20.1305 6.05286 20.1307 6.12108V25.9887L27.8694 21.5327V11.3762C27.8694 11.3087 27.8791 11.2399 27.8965 11.1753C27.9033 11.152 27.9158 11.1318 27.9235 11.1097C27.9391 11.069 27.9526 11.0272 27.9738 10.9897C27.9882 10.9646 28.0094 10.9443 28.0261 10.9211C28.0491 10.8902 28.0684 10.8583 28.0954 10.8311C28.1179 10.809 28.1458 10.7925 28.171 10.7732C28.2 10.75 28.2251 10.7248 28.2561 10.7065H28.257L37.5449 5.35951C37.6625 5.29174 37.7958 5.25607 37.9315 5.25607C38.0672 5.25607 38.2005 5.29174 38.3181 5.35951L47.6051 10.7065C47.6379 10.7258 47.663 10.75 47.692 10.7721C47.716 10.7916 47.7442 10.809 47.7665 10.8302C47.7934 10.8583 47.8128 10.8902 47.8358 10.9211C47.8534 10.9443 47.8746 10.9646 47.8883 10.9897C47.9104 11.0272 47.923 11.069 47.9383 11.1097C47.9472 11.1318 47.9597 11.152 47.9655 11.1753ZM46.4444 21.5329V12.7156L43.1944 14.5865L38.7046 17.1717V25.9889L46.4454 21.5329H46.4444ZM37.1575 37.4832V28.6598L32.741 31.1822L20.1297 38.3799V47.286L37.1575 37.4832ZM1.55559 7.45942V37.4832L18.5815 47.2853V38.3809L9.68698 33.347L9.68417 33.3451L9.68042 33.3432C9.65043 33.3258 9.62513 33.3007 9.5972 33.2795C9.57283 33.26 9.5449 33.2446 9.52372 33.2232L9.52185 33.2204C9.49673 33.1962 9.4793 33.1663 9.45812 33.1393C9.43862 33.113 9.41557 33.0909 9.40001 33.0639L9.39907 33.0609C9.38164 33.0321 9.37096 32.9972 9.3584 32.9644C9.34584 32.9353 9.32953 32.9081 9.32166 32.8774V32.8765C9.3121 32.8397 9.31023 32.8009 9.30629 32.7633C9.30254 32.7344 9.29467 32.7053 9.29467 32.6763V11.9156L4.80563 9.32933L1.55559 7.46054V7.45942ZM10.0696 1.66691L2.33159 6.12108L10.0677 10.5751L17.8045 6.11996L10.0677 1.66691H10.0696ZM14.0935 29.4641L18.5824 26.88V7.45942L15.3327 9.33046L10.8426 11.9155V31.3359L14.0935 29.4641ZM37.9314 6.92315L30.1946 11.3771L37.9314 15.8313L45.6673 11.3762L37.9314 6.92315ZM37.1573 17.1717L32.6675 14.5865L29.4176 12.7156V21.5329L33.9065 24.1171L37.1575 25.9889L37.1573 17.1717ZM19.3546 37.0416L30.7029 30.5629L36.3756 27.3254L28.6444 22.8742L19.743 27.9989L11.6302 32.6695L19.3546 37.0416Z" fill="#FF2D20"/>
</g>
<defs>
<clipPath id="clip0_35_104">
<rect width="48" height="49.4845" fill="white"/>
</clipPath>
</defs>
</svg>
